<svg width="31" height="31" viewBox="0 0 31 31" fill="none" xmlns="http://www.w3.org/2000/svg">
    <mask id="mask0_401_123" style="mask-type:luminance" maskUnits="userSpaceOnUse" x="0" y="0" width="31" height="31">
        <path d="M31 0H0V31H31V0Z" fill="white"/>
    </mask>
    <g mask="url(#mask0_401_123)">
        <path d="M21.8282 10.9984L8.66302 24.1636C8.15859 24.6681 7.34076 24.6681 6.83632 24.1636C6.3319 23.6592 6.3319 22.8413 6.83632 22.3369L20.1962 8.97705H21.8281L21.8282 10.9984Z" fill="#1E1E1E"/>
        <path fill-rule="evenodd" clip-rule="evenodd" d="M23.1195 21.7637C23.8329 21.7637 24.4112 21.1854 24.4112 20.4721L24.4111 7.68527C24.4111 6.97191 23.8328 6.39362 23.1195 6.39361L10.3327 6.39355C9.61932 6.39355 9.04102 6.97185 9.04102 7.68522C9.041 8.39858 9.61931 8.97689 10.3327 8.97689L21.8279 8.97694V20.4721C21.8279 21.1854 22.4061 21.7637 23.1195 21.7637Z" fill="#1E1E1E"/>
    </g>
</svg>
