<svg width="48" height="48" viewBox="0 0 48 48" fill="none" xmlns="http://www.w3.org/2000/svg">
    <rect width="48" height="48" fill="#FF2147"/>
    <g clip-path="url(#clip0_2307_2)">
        <path d="M24.5 36.2188C30.9721 36.2188 36.2188 30.9721 36.2188 24.5C36.2188 18.0279 30.9721 12.7812 24.5 12.7812C18.0279 12.7812 12.7812 18.0279 12.7812 24.5C12.7812 30.9721 18.0279 36.2188 24.5 36.2188Z" fill="white"/>
        <path d="M22.5469 22.8594H26.4531V32.2344H22.5469V22.8594Z" fill="#FF2147"/>
        <path d="M24.5 20.6719C25.5787 20.6719 26.4531 19.7974 26.4531 18.7188C26.4531 17.6401 25.5787 16.7656 24.5 16.7656C23.4213 16.7656 22.5469 17.6401 22.5469 18.7188C22.5469 19.7974 23.4213 20.6719 24.5 20.6719Z" fill="#FF2147"/>
    </g>
    <defs>
        <clipPath id="clip0_2307_2">
            <rect width="25" height="25" fill="white" transform="translate(12 12)"/>
        </clipPath>
    </defs>
</svg>
