<svg width="48" height="48" viewBox="0 0 48 48" fill="none" xmlns="http://www.w3.org/2000/svg">
<rect width="48" height="48" fill="#FF2147"/>
<g clip-path="url(#clip0_2038_618)">
<path d="M13 15.5273C13 14.7947 13.259 14.1904 13.777 13.7142C14.295 13.2381 14.9685 13 15.7973 13C16.6113 13 17.2699 13.2344 17.7732 13.7032C18.2912 14.1867 18.5502 14.8167 18.5502 15.5932C18.5502 16.2965 18.2986 16.8825 17.7954 17.3513C17.2774 17.8348 16.5965 18.0766 15.7529 18.0766H15.7307C14.9167 18.0766 14.2581 17.8348 13.7548 17.3513C13.2516 16.8679 13 16.2598 13 15.5273ZM13.2886 34.7567V20.0764H18.2172V34.7567H13.2886ZM20.9479 34.7567H25.8764V26.5595C25.8764 26.0467 25.9357 25.6511 26.0541 25.3728C26.2613 24.8746 26.5758 24.4534 26.9976 24.1091C27.4194 23.7648 27.9485 23.5927 28.5849 23.5927C30.2426 23.5927 31.0714 24.6988 31.0714 26.9111V34.7567H36V26.3397C36 24.1714 35.482 22.5268 34.4459 21.406C33.4099 20.2852 32.0409 19.7248 30.3388 19.7248C28.4295 19.7248 26.9421 20.5379 25.8764 22.1642V22.2081H25.8542L25.8764 22.1642V20.0764H20.9479C20.9775 20.5453 20.9923 22.003 20.9923 24.4497C20.9923 26.8965 20.9775 30.3321 20.9479 34.7567Z" fill="#FCF9F5"/>
</g>
<defs>
<clipPath id="clip0_2038_618">
<rect width="23" height="21.7568" fill="white" transform="translate(13 13)"/>
</clipPath>
</defs>
</svg>
