<svg width="39" height="32" viewBox="0 0 39 32" fill="none" xmlns="http://www.w3.org/2000/svg">
    <path d="M21.8324 30.2529C21.8612 30.2818 22.7439 30.5031 23.7937 30.7444C24.8437 30.9856 25.7141 31.1462 25.7281 31.1014C25.7419 31.0564 25.8506 30.3277 25.9694 29.4819C26.208 27.7834 26.7858 25.8003 27.4031 24.56C29.3275 20.6947 32.7802 18.1354 36.9678 17.4702L38.0342 17.3007V15.5932V13.8856L37.0677 13.7234C30.7354 12.6611 26.6071 7.92641 25.8349 0.840965C25.7845 0.378292 25.7242 -0.000135422 25.701 -0.000135422C25.4874 -0.000135422 21.9488 0.852671 21.8819 0.920229C21.8335 0.96908 21.8695 1.40282 21.962 1.88393C22.986 7.2114 25.9179 11.5465 29.7227 13.3591L30.6353 13.7939L11.8675 13.828L0 13.8496L0 17.3053L11.8981 17.327L30.6216 17.3611L29.4694 17.9449C26.4802 19.4593 24.1137 22.43 22.72 26.4173C22.3229 27.5533 21.7236 30.1431 21.8324 30.2529Z" fill="#FF2147"/>
</svg>
