<svg width="39" height="32" viewBox="0 0 39 32" fill="none" xmlns="http://www.w3.org/2000/svg">
<path d="M16.2018 0.85601C16.173 0.827076 15.2903 0.605833 14.2405 0.364538C13.1905 0.123243 12.3201 -0.0373068 12.3061 0.00750712C12.2922 0.0524556 12.1836 0.781186 12.0648 1.627C11.8262 3.32549 11.2484 5.3086 10.631 6.54886C8.70666 10.4142 5.25399 12.9735 1.06637 13.6387L1.20715e-06 13.8082L1.35642e-06 15.5157L1.50571e-06 17.2233L0.966516 17.3855C7.29874 18.4478 11.427 23.1825 12.1993 30.2679C12.2497 30.7306 12.31 31.109 12.3332 31.109C12.5467 31.109 16.0854 30.2562 16.1523 30.1887C16.2007 30.1398 16.1647 29.7061 16.0722 29.225C15.0482 23.8975 12.1163 19.5624 8.31153 17.7498L7.39887 17.315L26.1666 17.2809L38.0342 17.2593L38.0342 13.8036L26.1361 13.7819L7.4126 13.7477L8.56482 13.164C11.554 11.6496 13.9205 8.67893 15.3142 4.69157C15.7113 3.55561 16.3106 0.965824 16.2018 0.85601Z" fill="black"/>
</svg>
