<svg width="48" height="48" viewBox="0 0 48 48" fill="none" xmlns="http://www.w3.org/2000/svg">
    <rect width="48" height="48" fill="#FF2147"/>
    <path fill-rule="evenodd" clip-rule="evenodd" d="M24.4991 13C18.1495 13 13 18.1488 13 24.5005C13 29.5808 16.2948 33.8915 20.8647 35.4129C21.4401 35.5182 21.6497 35.163 21.6497 34.858C21.6497 34.5848 21.6397 33.8619 21.6337 32.9024C18.4349 33.5971 17.76 31.3606 17.76 31.3606C17.2369 30.0319 16.4829 29.6782 16.4829 29.6782C15.4387 28.9652 16.5619 28.9793 16.5619 28.9793C17.7162 29.0605 18.3233 30.1646 18.3233 30.1646C19.3491 31.9218 21.0153 31.4143 21.6704 31.1199C21.7749 30.3772 22.0721 29.8702 22.4004 29.5829C19.8469 29.2921 17.162 28.3058 17.162 23.899C17.162 22.6431 17.6103 21.6173 18.3459 20.8132C18.2273 20.5223 17.8327 19.3532 18.459 17.7696C18.459 17.7696 19.4241 17.4604 21.6211 18.948C22.5382 18.6931 23.5223 18.566 24.5001 18.5611C25.4772 18.5651 26.4606 18.6931 27.3791 18.948C29.5747 17.4604 30.5384 17.7696 30.5384 17.7696C31.166 19.3532 30.7714 20.5223 30.6535 20.8132C31.3905 21.6173 31.8353 22.6431 31.8353 23.899C31.8353 28.3171 29.1462 29.2892 26.5849 29.5737C26.9972 29.9288 27.365 30.6306 27.365 31.7037C27.365 33.2406 27.351 34.481 27.351 34.858C27.351 35.1658 27.5585 35.5238 28.1417 35.4115C32.708 33.8873 36 29.5801 36 24.5005C36 18.1488 30.8508 13 24.4991 13Z" fill="#FCF9F5"/>
</svg>
