<svg width="72" height="72" viewBox="0 0 72 72" fill="none" xmlns="http://www.w3.org/2000/svg">
    <path d="M59.9998 30.378C61.9998 24.259 56.9998 24.259 56.9998 24.259C49.9998 25.279 54.9998 31.399 54.9998 31.399C54.9998 31.399 60.9998 42.617 50.4168 42.223C39.8338 41.829 42.9998 31.398 42.9998 31.398C49.0698 26.2 46.9998 20.18 46.9998 20.18C43.9998 9.98003 35.9998 11 35.9998 11C35.9998 11 27.9998 9.98003 24.9998 19.16C24.9998 19.16 21.9998 28.339 28.9998 31.398C28.9998 31.398 32.9998 42.617 20.9998 42.617C20.9998 42.617 10.9998 42.617 16.9998 29.358C16.9998 29.358 18.9998 22.219 12.9998 24.259C12.9998 24.259 9.9998 25.279 10.9998 30.379C10.9998 30.379 5.9998 51.796 24.9998 46.696C24.9998 46.696 40.9998 43.636 46.9998 46.696C52.9998 49.756 60.9998 47.716 60.9998 37.517L59.9998 30.378Z" fill="#FF2147"/>
    <path d="M32.9997 32C32.9997 32 36.9997 43.45 25.9997 46.572C25.9997 46.572 18.9997 45.531 18.9997 51.776C18.9997 58.021 22.9997 58.02 24.9997 56.98C26.9997 55.94 27.9997 52.816 27.9997 52.816C27.9997 52.816 27.9997 49.877 23.9997 53C19.9997 56.123 20.9997 49.694 27.9997 48.653C34.9997 47.613 37.9997 36.163 35.9997 32H32.9997ZM19.1157 45C19.1157 45 17.1157 46 15.1157 44C13.1157 42 11.1157 43 11.1157 43C11.1157 43 7.1157 44 10.1157 48C10.1157 48 11.1157 50 14.1157 49C14.1157 49 15.9997 48 13.9997 47C11.9997 46 9.9997 45 11.9997 45C13.9997 45 18.2307 50 19.1157 45Z" fill="#FF2147"/>
    <path d="M38.6083 32C38.6083 32 34.6082 43.45 45.6082 46.572C45.6082 46.572 52.6082 45.531 52.6082 51.776C52.6082 58.021 48.6082 58.02 46.6082 56.98C44.6082 55.94 43.6082 52.816 43.6082 52.816C43.6082 52.816 44.0002 49.877 48.0002 53C52.0002 56.123 50.6082 49.694 43.6082 48.653C36.6082 47.613 33.6083 36.163 35.6083 32H38.6083ZM54.0002 45C54.0002 45 56.0002 46 58.0002 44C60.0002 42 62.0002 43 62.0002 43C62.0002 43 66.0002 44 63.0002 48C63.0002 48 62.0002 50 59.0002 49C59.0002 49 57.1162 48 59.1162 47C61.1162 46 63.1162 45 61.1162 45C59.1162 45 54.8842 50 54.0002 45Z" fill="#FF2147"/>
    <path d="M60 29.9999C62 23.9999 57 23.9999 57 23.9999C50 24.9999 55 30.9999 55 30.9999C55 30.9999 61 41.9999 50.417 41.6139C39.834 41.2279 43 30.9999 43 30.9999C49.07 25.9029 47 19.9999 47 19.9999C44 9.99986 36 10.9999 36 10.9999C36 10.9999 28 9.99986 25 18.9999C25 18.9999 22 27.9999 29 30.9999C29 30.9999 33 41.9999 21 41.9999C21 41.9999 11 41.9999 17 28.9999C17 28.9999 19 21.9999 13 23.9999C13 23.9999 9.99998 24.9999 11 29.9999" stroke="black" stroke-width="2" stroke-miterlimit="10" stroke-linecap="round" stroke-linejoin="round"/>
    <path d="M32.9997 33C32.9997 33 36.9997 44 25.9997 47C25.9997 47 18.9997 46 18.9997 52C18.9997 58 22.9997 58 24.9997 57C26.9997 56 27.9997 53 27.9997 53M38.7097 33C38.7097 33 34.7097 44 45.7097 47C45.7097 47 52.7097 46 52.7097 52C52.7097 58 48.7097 58 46.7097 57C44.7097 56 43.7097 53 43.7097 53M19.1157 45C19.1157 45 17.1157 46 15.1157 44C13.1157 42 11.1157 43 11.1157 43C11.1157 43 7.1157 44 10.1157 48C10.1157 48 11.1157 50 14.1157 49M53.9997 45C53.9997 45 55.9997 46 57.9997 44C59.9997 42 61.9997 43 61.9997 43C61.9997 43 65.9997 44 62.9997 48C62.9997 48 61.9997 50 58.9997 49" stroke="black" stroke-width="2" stroke-miterlimit="10" stroke-linecap="round" stroke-linejoin="round"/>
</svg>
