<svg width="42" height="42" viewBox="0 0 42 42" fill="none" xmlns="http://www.w3.org/2000/svg">
    <path d="M19.6875 6.5625V2.625C19.6875 2.2769 19.8258 1.94306 20.0719 1.69692C20.3181 1.45078 20.6519 1.3125 21 1.3125C21.3481 1.3125 21.6819 1.45078 21.9281 1.69692C22.1742 1.94306 22.3125 2.2769 22.3125 2.625V6.5625C22.3125 6.9106 22.1742 7.24444 21.9281 7.49058C21.6819 7.73672 21.3481 7.875 21 7.875C20.6519 7.875 20.3181 7.73672 20.0719 7.49058C19.8258 7.24444 19.6875 6.9106 19.6875 6.5625ZM31.5 21C31.5 23.0767 30.8842 25.1068 29.7304 26.8335C28.5767 28.5602 26.9368 29.906 25.0182 30.7007C23.0996 31.4955 20.9884 31.7034 18.9516 31.2982C16.9148 30.8931 15.0438 29.8931 13.5754 28.4246C12.1069 26.9562 11.1069 25.0852 10.7018 23.0484C10.2966 21.0116 10.5045 18.9004 11.2993 16.9818C12.094 15.0632 13.4398 13.4233 15.1665 12.2696C16.8932 11.1158 18.9233 10.5 21 10.5C23.7838 10.503 26.4528 11.6103 28.4213 13.5787C30.3897 15.5472 31.497 18.2162 31.5 21ZM28.875 21C28.875 19.4425 28.4131 17.9199 27.5478 16.6249C26.6825 15.3298 25.4526 14.3205 24.0136 13.7244C22.5747 13.1284 20.9913 12.9725 19.4637 13.2763C17.9361 13.5802 16.5329 14.3302 15.4315 15.4315C14.3302 16.5329 13.5802 17.9361 13.2763 19.4637C12.9725 20.9913 13.1284 22.5747 13.7244 24.0136C14.3205 25.4526 15.3298 26.6825 16.6249 27.5478C17.9199 28.4131 19.4425 28.875 21 28.875C23.0879 28.8728 25.0897 28.0424 26.5661 26.5661C28.0424 25.0897 28.8728 23.0879 28.875 21ZM9.57141 11.4286C9.81768 11.6749 10.1517 11.8132 10.5 11.8132C10.8483 11.8132 11.1823 11.6749 11.4286 11.4286C11.6749 11.1823 11.8132 10.8483 11.8132 10.5C11.8132 10.1517 11.6749 9.81768 11.4286 9.57141L8.80359 6.94641C8.55732 6.70013 8.22329 6.56177 7.875 6.56177C7.52671 6.56177 7.19268 6.70013 6.94641 6.94641C6.70013 7.19268 6.56177 7.52671 6.56177 7.875C6.56177 8.22329 6.70013 8.55732 6.94641 8.80359L9.57141 11.4286ZM9.57141 30.5714L6.94641 33.1964C6.70013 33.4427 6.56177 33.7767 6.56177 34.125C6.56177 34.4733 6.70013 34.8073 6.94641 35.0536C7.19268 35.2999 7.52671 35.4382 7.875 35.4382C8.22329 35.4382 8.55732 35.2999 8.80359 35.0536L11.4286 32.4286C11.5505 32.3067 11.6473 32.1619 11.7133 32.0026C11.7793 31.8432 11.8132 31.6725 11.8132 31.5C11.8132 31.3275 11.7793 31.1568 11.7133 30.9974C11.6473 30.8381 11.5505 30.6933 11.4286 30.5714C11.3066 30.4495 11.1619 30.3527 11.0026 30.2867C10.8432 30.2207 10.6725 30.1868 10.5 30.1868C10.3275 30.1868 10.1568 30.2207 9.99745 30.2867C9.83812 30.3527 9.69335 30.4495 9.57141 30.5714ZM31.5 11.8125C31.6724 11.8126 31.8432 11.7788 32.0025 11.7129C32.1618 11.6471 32.3066 11.5504 32.4286 11.4286L35.0536 8.80359C35.2999 8.55732 35.4382 8.22329 35.4382 7.875C35.4382 7.52671 35.2999 7.19268 35.0536 6.94641C34.8073 6.70013 34.4733 6.56177 34.125 6.56177C33.7767 6.56177 33.4427 6.70013 33.1964 6.94641L30.5714 9.57141C30.3876 9.75497 30.2625 9.98892 30.2117 10.2437C30.161 10.4984 30.187 10.7625 30.2864 11.0024C30.3859 11.2424 30.5542 11.4474 30.7703 11.5916C30.9863 11.7358 31.2403 11.8127 31.5 11.8125ZM32.4286 30.5714C32.1823 30.3251 31.8483 30.1868 31.5 30.1868C31.1517 30.1868 30.8177 30.3251 30.5714 30.5714C30.3251 30.8177 30.1868 31.1517 30.1868 31.5C30.1868 31.8483 30.3251 32.1823 30.5714 32.4286L33.1964 35.0536C33.3184 35.1755 33.4631 35.2723 33.6224 35.3383C33.7818 35.4043 33.9525 35.4382 34.125 35.4382C34.2975 35.4382 34.4682 35.4043 34.6276 35.3383C34.7869 35.2723 34.9316 35.1755 35.0536 35.0536C35.1755 34.9316 35.2723 34.7869 35.3383 34.6276C35.4043 34.4682 35.4382 34.2975 35.4382 34.125C35.4382 33.9525 35.4043 33.7818 35.3383 33.6224C35.2723 33.4631 35.1755 33.3184 35.0536 33.1964L32.4286 30.5714ZM7.875 21C7.875 20.6519 7.73672 20.3181 7.49058 20.0719C7.24444 19.8258 6.9106 19.6875 6.5625 19.6875H2.625C2.2769 19.6875 1.94306 19.8258 1.69692 20.0719C1.45078 20.3181 1.3125 20.6519 1.3125 21C1.3125 21.3481 1.45078 21.6819 1.69692 21.9281C1.94306 22.1742 2.2769 22.3125 2.625 22.3125H6.5625C6.9106 22.3125 7.24444 22.1742 7.49058 21.9281C7.73672 21.6819 7.875 21.3481 7.875 21ZM21 34.125C20.6519 34.125 20.3181 34.2633 20.0719 34.5094C19.8258 34.7556 19.6875 35.0894 19.6875 35.4375V39.375C19.6875 39.7231 19.8258 40.0569 20.0719 40.3031C20.3181 40.5492 20.6519 40.6875 21 40.6875C21.3481 40.6875 21.6819 40.5492 21.9281 40.3031C22.1742 40.0569 22.3125 39.7231 22.3125 39.375V35.4375C22.3125 35.0894 22.1742 34.7556 21.9281 34.5094C21.6819 34.2633 21.3481 34.125 21 34.125ZM39.375 19.6875H35.4375C35.0894 19.6875 34.7556 19.8258 34.5094 20.0719C34.2633 20.3181 34.125 20.6519 34.125 21C34.125 21.3481 34.2633 21.6819 34.5094 21.9281C34.7556 22.1742 35.0894 22.3125 35.4375 22.3125H39.375C39.7231 22.3125 40.0569 22.1742 40.3031 21.9281C40.5492 21.6819 40.6875 21.3481 40.6875 21C40.6875 20.6519 40.5492 20.3181 40.3031 20.0719C40.0569 19.8258 39.7231 19.6875 39.375 19.6875Z" fill="#FFFBFB"/>
</svg>
