<svg width="60" height="60" viewBox="0 0 60 60" fill="none" xmlns="http://www.w3.org/2000/svg">
    <path d="M48.2016 45.5485C48.3758 45.7227 48.514 45.9295 48.6083 46.1571C48.7026 46.3847 48.7511 46.6287 48.7511 46.8751C48.7511 47.1214 48.7026 47.3654 48.6083 47.593C48.514 47.8206 48.3758 48.0274 48.2016 48.2016C48.0274 48.3758 47.8206 48.514 47.593 48.6083C47.3654 48.7026 47.1214 48.7511 46.8751 48.7511C46.6287 48.7511 46.3847 48.7026 46.1571 48.6083C45.9295 48.514 45.7227 48.3758 45.5485 48.2016L30.0001 32.6508L14.4516 48.2016C14.0998 48.5535 13.6226 48.7511 13.1251 48.7511C12.6275 48.7511 12.1503 48.5535 11.7985 48.2016C11.4467 47.8498 11.249 47.3726 11.249 46.8751C11.249 46.3775 11.4467 45.9003 11.7985 45.5485L27.3493 30.0001L11.7985 14.4516C11.4467 14.0998 11.249 13.6226 11.249 13.1251C11.249 12.6275 11.4467 12.1503 11.7985 11.7985C12.1503 11.4467 12.6275 11.249 13.1251 11.249C13.6226 11.249 14.0998 11.4467 14.4516 11.7985L30.0001 27.3493L45.5485 11.7985C45.9003 11.4467 46.3775 11.249 46.8751 11.249C47.3726 11.249 47.8498 11.4467 48.2016 11.7985C48.5535 12.1503 48.7511 12.6275 48.7511 13.1251C48.7511 13.6226 48.5535 14.0998 48.2016 14.4516L32.6508 30.0001L48.2016 45.5485Z" fill="#FF2147"/>
</svg>
