<svg width="106" height="106" viewBox="0 0 106 106" fill="none" xmlns="http://www.w3.org/2000/svg">
    <circle cx="53" cy="53" r="51.5" fill="#FF2147" stroke="black" stroke-width="3"/>
    <rect x="26.6406" y="23.9231" width="47.2821" height="58.1538" rx="11.5" fill="white" stroke="black" stroke-width="3"/>
    <rect x="73.9229" y="64.4102" width="8.4359" height="15.2308" rx="4.21795" fill="white" stroke="black" stroke-width="3"/>
    <rect x="73.9229" y="45.3846" width="8.4359" height="15.2308" rx="4.21795" fill="white" stroke="black" stroke-width="3"/>
    <rect x="73.9229" y="26.359" width="8.4359" height="15.2308" rx="4.21795" fill="white" stroke="black" stroke-width="3"/>
    <circle cx="50.6209" cy="45.8653" r="5.63462" fill="#FF2147" stroke="black" stroke-width="3"/>
    <mask id="path-7-inside-1_2041_369" fill="white">
        <path d="M38.0508 65.7161C38.0508 60.5696 42.2229 56.3975 47.3695 56.3975H53.8731C59.0197 56.3975 63.1918 60.5696 63.1918 65.7161C63.1918 66.5739 62.4965 67.2693 61.6387 67.2693H39.6039C38.7461 67.2693 38.0508 66.5739 38.0508 65.7161Z"/>
    </mask>
    <path d="M38.0508 65.7161C38.0508 60.5696 42.2229 56.3975 47.3695 56.3975H53.8731C59.0197 56.3975 63.1918 60.5696 63.1918 65.7161C63.1918 66.5739 62.4965 67.2693 61.6387 67.2693H39.6039C38.7461 67.2693 38.0508 66.5739 38.0508 65.7161Z" fill="#FF2147" stroke="black" stroke-width="6" mask="url(#path-7-inside-1_2041_369)"/>
</svg>
