<svg width="106" height="106" viewBox="0 0 106 106" fill="none" xmlns="http://www.w3.org/2000/svg">
    <circle cx="53" cy="53" r="51.5" fill="#FF2147" stroke="black" stroke-width="3"/>
    <mask id="path-2-inside-1_2041_370" fill="white">
        <path fill-rule="evenodd" clip-rule="evenodd" d="M37.4238 29.218C29.1396 29.218 22.4238 35.9337 22.4238 44.218V50.3334V55.6667V61.7821C22.4238 70.0664 29.1396 76.7821 37.4238 76.7821H68.5777C76.8619 76.7821 83.5777 70.0664 83.5777 61.7821V50.3334C83.5777 42.0491 76.8619 35.3334 68.5777 35.3334H52.7893C51.5178 35.3334 50.3467 34.7041 49.4627 33.7902C46.7355 30.9709 42.9126 29.218 38.6802 29.218H37.4238Z"/>
    </mask>
    <path fill-rule="evenodd" clip-rule="evenodd" d="M37.4238 29.218C29.1396 29.218 22.4238 35.9337 22.4238 44.218V50.3334V55.6667V61.7821C22.4238 70.0664 29.1396 76.7821 37.4238 76.7821H68.5777C76.8619 76.7821 83.5777 70.0664 83.5777 61.7821V50.3334C83.5777 42.0491 76.8619 35.3334 68.5777 35.3334H52.7893C51.5178 35.3334 50.3467 34.7041 49.4627 33.7902C46.7355 30.9709 42.9126 29.218 38.6802 29.218H37.4238Z" fill="white"/>
    <path d="M25.4238 44.218C25.4238 37.5906 30.7964 32.218 37.4238 32.218V26.218C27.4827 26.218 19.4238 34.2769 19.4238 44.218H25.4238ZM25.4238 50.3334V44.218H19.4238V50.3334H25.4238ZM25.4238 55.6667V50.3334H19.4238V55.6667H25.4238ZM25.4238 61.7821V55.6667H19.4238V61.7821H25.4238ZM37.4238 73.7821C30.7964 73.7821 25.4238 68.4095 25.4238 61.7821H19.4238C19.4238 71.7232 27.4827 79.7821 37.4238 79.7821V73.7821ZM68.5777 73.7821H37.4238V79.7821H68.5777V73.7821ZM80.5777 61.7821C80.5777 68.4095 75.2051 73.7821 68.5777 73.7821V79.7821C78.5188 79.7821 86.5777 71.7232 86.5777 61.7821H80.5777ZM80.5777 50.3334V61.7821H86.5777V50.3334H80.5777ZM68.5777 38.3334C75.2051 38.3334 80.5777 43.706 80.5777 50.3334H86.5777C86.5777 40.3923 78.5188 32.3334 68.5777 32.3334V38.3334ZM52.7893 38.3334H68.5777V32.3334H52.7893V38.3334ZM38.6802 32.218C42.0666 32.218 45.121 33.6168 47.3064 35.876L51.6189 31.7044C48.3499 28.3249 43.7585 26.218 38.6802 26.218V32.218ZM37.4238 32.218H38.6802V26.218H37.4238V32.218ZM52.7893 32.3334C52.5311 32.3334 52.0942 32.1957 51.6189 31.7044L47.3064 35.876C48.5992 37.2124 50.5045 38.3334 52.7893 38.3334V32.3334Z" fill="black" mask="url(#path-2-inside-1_2041_370)"/>
</svg>
